<?xml version="1.0" standalone="no"?>
<!DOCTYPE svg PUBLIC "-//W3C//DTD SVG 20010904//EN"
 "http://www.w3.org/TR/2001/REC-SVG-20010904/DTD/svg10.dtd">
<svg version="1.0" xmlns="http://www.w3.org/2000/svg"
 width="300.000000pt" height="300.000000pt" viewBox="0 0 300.000000 300.000000"
 preserveAspectRatio="xMidYMid meet">
<metadata>
Created by potrace 1.10, written by Peter Selinger 2001-2011
</metadata>
<g transform="translate(0.000000,300.000000) scale(0.100000,-0.100000)"
fill="#000000" stroke="none">
<path d="M1290 2473 c0 -89 82 -173 167 -173 l34 0 -60 50 c-33 27 -66 59 -74
70 -7 11 -16 17 -19 15 -3 -3 -8 3 -11 15 -4 16 0 20 19 20 16 0 24 -6 24 -17
0 -9 32 -46 71 -83 l70 -66 -7 40 c-15 95 -69 147 -167 161 l-47 7 0 -39z"/>
<path d="M1670 2495 c-67 -21 -105 -66 -129 -155 -12 -41 -21 -85 -21 -98 l0
-24 -36 22 c-63 40 -152 12 -180 -55 -25 -60 -18 -105 31 -200 65 -128 57
-123 187 -123 128 0 123 -3 190 112 61 105 64 189 7 245 -41 41 -88 49 -139
23 l-41 -20 6 22 c21 76 40 109 88 151 76 66 81 55 9 -18 -34 -34 -62 -66 -62
-71 0 -5 19 -6 42 -2 81 13 138 82 138 165 0 47 -11 50 -90 26z m-230 -275 c0
-5 -9 -10 -20 -10 -12 0 -32 -11 -45 -25 -21 -21 -35 -65 -20 -65 2 0 23 20
46 45 35 37 47 45 78 45 38 -1 86 5 136 15 24 5 36 0 63 -24 44 -41 44 -87 -2
-175 -19 -35 -32 -67 -30 -69 3 -2 0 -16 -7 -30 -12 -27 -56 -40 -84 -24 -9 5
-36 6 -61 2 -57 -8 -75 3 -109 67 -15 29 -34 64 -41 78 -17 31 -18 97 -1 130
19 37 97 69 97 40z"/>
<path d="M1211 2461 c-15 -10 -8 -41 9 -41 15 0 25 29 14 40 -5 5 -15 5 -23 1z"/>
<path d="M1813 2454 c-8 -21 13 -42 28 -27 13 13 5 43 -11 43 -6 0 -13 -7 -17
-16z"/>
<path d="M1875 2400 c-59 -24 -100 -111 -86 -185 l7 -40 17 31 c24 45 93 102
149 122 27 9 48 20 48 24 0 13 -74 58 -95 57 -11 0 -29 -4 -40 -9z m40 -20
c-3 -5 -12 -10 -20 -10 -8 0 -31 -17 -51 -37 l-38 -38 24 34 c12 18 37 39 54
47 38 16 39 16 31 4z"/>
<path d="M1135 2386 c-14 -10 -25 -11 -46 -3 -43 17 -69 -12 -69 -74 0 -53 15
-73 29 -37 5 13 16 30 25 37 42 35 116 -5 116 -63 1 -26 2 -28 11 -14 5 10 12
39 15 65 5 39 2 53 -16 76 -24 30 -38 33 -65 13z"/>
<path d="M924 2372 c-6 -4 -16 -17 -23 -29 -6 -13 -20 -23 -29 -23 -26 0 -42
-20 -42 -52 0 -22 10 -35 48 -62 26 -19 57 -48 70 -65 23 -31 52 -42 52 -18 0
20 -13 33 -47 51 -37 19 -53 43 -53 81 0 34 44 79 71 72 13 -4 19 0 19 12 0
33 -38 52 -66 33z"/>
<path d="M2080 2336 c-74 -21 -141 -57 -188 -103 -43 -40 -44 -44 -40 -88 4
-33 2 -48 -9 -53 -23 -13 -5 -44 21 -36 11 4 38 6 59 5 32 -2 50 7 105 47 37
27 111 73 165 102 53 29 97 56 97 60 0 10 -42 28 -84 35 -74 14 -203 -34 -275
-103 -33 -31 -41 -46 -41 -73 l1 -34 17 31 c31 56 58 82 118 113 57 30 164 56
164 40 0 -4 10 -9 23 -11 17 -3 5 -12 -53 -42 -41 -21 -112 -61 -158 -88 -100
-60 -126 -61 -130 -3 -5 68 60 121 248 203 33 14 15 14 -40 -2z"/>
<path d="M1273 2312 c-8 -13 -7 -22 2 -35 11 -16 13 -16 29 1 15 18 15 20 -2
35 -16 15 -19 15 -29 -1z"/>
<path d="M942 2288 c-20 -20 -14 -65 10 -82 30 -22 41 -20 53 7 7 16 6 31 -5
54 -16 34 -37 42 -58 21z"/>
<path d="M1086 2284 c-24 -23 -20 -31 17 -30 17 0 40 -4 50 -8 24 -11 22 9 -3
34 -24 24 -43 25 -64 4z"/>
<path d="M703 2227 c3 -8 8 -39 12 -71 7 -54 10 -59 79 -121 69 -62 72 -64 89
-46 18 18 17 21 -22 99 -35 71 -48 86 -96 117 -61 38 -70 42 -62 22z m128
-135 c17 -30 28 -56 26 -58 -7 -8 -117 115 -117 131 0 31 59 -16 91 -73z"/>
<path d="M1083 2222 c-9 -5 -11 -24 -6 -59 l6 -52 26 18 c14 9 35 21 45 27 28
15 30 30 7 53 -21 21 -56 27 -78 13z"/>
<path d="M1026 2204 c-14 -37 1 -104 23 -104 8 0 7 25 -1 103 -3 21 -14 22
-22 1z"/>
<path d="M1210 2201 c-5 -11 -10 -28 -10 -38 0 -25 -19 -43 -45 -43 -11 0 -31
-7 -44 -16 -18 -13 -22 -24 -19 -50 5 -42 -6 -44 -27 -5 -16 32 -69 51 -88 32
-15 -15 16 -47 59 -61 23 -8 49 -31 80 -71 44 -58 47 -59 68 -45 11 9 39 27
62 42 l41 27 -26 74 c-21 63 -23 80 -14 113 7 27 7 42 -1 50 -15 15 -24 12
-36 -9z m5 -127 c-2 -24 2 -37 11 -41 24 -9 16 -38 -21 -73 -30 -29 -37 -32
-45 -20 -12 18 -13 40 -2 40 16 1 53 40 47 50 -4 6 -22 -3 -46 -22 -55 -45
-59 -29 -4 20 48 42 49 54 3 45 -19 -4 -25 -10 -21 -22 5 -13 3 -14 -7 -4 -18
17 4 43 35 43 13 0 26 7 29 16 10 27 25 5 21 -32z"/>
<path d="M877 2113 c45 -96 57 -111 48 -58 -12 70 -25 103 -50 119 -13 9 -26
16 -29 16 -3 0 11 -35 31 -77z"/>
<path d="M2250 2153 c-42 -13 -64 -31 -82 -66 -22 -45 -19 -60 6 -23 16 25 74
62 82 53 2 -2 -14 -16 -36 -31 -22 -14 -40 -28 -40 -31 0 -3 14 -5 31 -5 22 0
41 10 65 34 54 54 40 91 -26 69z"/>
<path d="M2127 2123 c-4 -3 -7 -37 -7 -74 l0 -67 -38 20 c-46 26 -82 19 -123
-22 -39 -39 -41 -115 -4 -175 13 -22 25 -55 25 -72 0 -20 9 -42 21 -54 18 -18
28 -20 63 -14 52 9 80 9 131 0 53 -9 83 14 92 70 3 22 15 53 26 68 45 65 27
171 -36 203 -34 18 -88 12 -107 -11 -22 -26 -25 -17 -24 60 1 70 -3 85 -19 68z
m-92 -150 c-36 -19 -54 -42 -55 -66 0 -10 -5 -15 -10 -12 -29 18 29 95 69 95
l26 -1 -30 -16z m217 5 c26 -22 48 -62 48 -89 0 -14 -11 -47 -25 -73 -14 -26
-25 -53 -25 -60 0 -21 -24 -47 -45 -48 -11 0 -54 1 -96 2 -63 2 -78 6 -88 23
-9 14 -10 22 -2 27 8 4 5 12 -8 24 -11 10 -26 34 -32 54 -11 34 -10 37 17 61
16 13 29 28 29 33 0 19 52 37 105 38 30 0 62 5 70 10 20 13 33 12 52 -2z"/>
<path d="M2330 2070 c0 -15 5 -20 18 -18 9 2 17 10 17 18 0 8 -8 16 -17 18
-13 2 -18 -3 -18 -18z"/>
<path d="M663 2062 c19 -21 155 -97 162 -90 9 9 -116 99 -146 105 -34 6 -34 6
-16 -15z"/>
<path d="M1806 2042 c-3 -5 -8 -27 -12 -50 -5 -32 -11 -42 -28 -44 -13 -2 -29
-18 -42 -44 -11 -22 -30 -56 -42 -76 -14 -23 -22 -51 -22 -82 0 -39 6 -52 34
-84 33 -35 37 -37 98 -37 68 0 107 19 127 63 18 38 13 95 -12 132 -13 19 -29
54 -35 77 -10 32 -19 44 -37 49 -14 3 -25 7 -25 9 0 1 6 21 14 43 14 38 12 52
-5 52 -4 0 -10 -4 -13 -8z m-16 -122 c0 -6 -6 -13 -14 -16 -8 -3 -16 -19 -20
-35 -3 -17 -15 -42 -26 -56 -11 -14 -20 -36 -20 -49 0 -49 15 -29 81 109 12
26 27 46 32 44 10 -3 47 -99 54 -143 4 -23 -2 -38 -21 -61 -46 -55 -127 -52
-165 7 -9 14 -11 21 -4 17 10 -6 11 0 6 23 -4 23 0 39 14 58 11 15 25 44 32
64 11 33 22 45 44 47 4 1 7 -4 7 -9z"/>
<path d="M584 2019 c-3 -6 -3 -26 0 -44 7 -36 38 -65 68 -65 25 0 34 44 15 74
-18 27 -73 50 -83 35z"/>
<path d="M914 1981 c-44 -27 -64 -59 -64 -103 0 -33 10 -49 76 -123 41 -47 78
-85 81 -85 2 0 32 21 66 48 33 26 67 52 75 58 12 9 11 17 -9 52 -13 23 -26 42
-29 42 -3 0 -24 -19 -45 -41 -26 -28 -33 -39 -20 -34 90 35 88 -3 -4 -67 -31
-22 -48 -13 -106 58 -38 47 -45 63 -45 98 0 32 6 48 23 64 30 29 71 28 91 0 9
-12 16 -19 16 -14 0 5 7 3 15 -4 21 -17 19 -46 -7 -80 -32 -43 -19 -43 31 0
l44 38 -33 46 c-46 68 -97 83 -156 47z"/>
<path d="M2387 1972 c-16 -18 -16 -20 1 -35 18 -16 20 -16 35 1 16 18 16 20
-1 35 -18 16 -20 16 -35 -1z"/>
<path d="M1240 1918 c-30 -21 -56 -42 -57 -46 -1 -4 4 -16 12 -26 12 -16 17
-17 30 -6 23 19 37 -4 30 -47 -3 -18 -3 -33 1 -33 14 0 104 62 104 71 0 5 -10
13 -23 18 -13 5 -29 16 -35 24 -11 13 -10 17 4 25 14 8 15 12 3 35 l-14 25
-55 -40z"/>
<path d="M925 1930 c-28 -31 -12 -34 30 -5 35 23 36 25 13 25 -14 0 -33 -9
-43 -20z"/>
<path d="M702 1928 c-7 -7 -12 -27 -12 -45 0 -36 54 -153 70 -153 6 0 4 12 -4
28 -8 15 -17 54 -21 87 -10 81 -17 99 -33 83z"/>
<path d="M754 1914 c-9 -35 10 -53 26 -24 12 23 7 50 -9 50 -6 0 -14 -12 -17
-26z"/>
<path d="M600 1872 c0 -15 24 -32 47 -32 25 0 29 10 11 28 -13 13 -58 16 -58
4z"/>
<path d="M793 1843 c-26 -26 -30 -53 -9 -53 21 0 38 26 34 52 l-3 23 -22 -22z"/>
<path d="M631 1801 c-23 -15 5 -41 45 -41 42 0 51 14 22 34 -25 18 -46 20 -67
7z"/>
<path d="M2395 1796 c-40 -17 -55 -37 -62 -80 -7 -44 6 -47 53 -11 22 17 35
37 40 61 3 19 5 37 3 39 -2 2 -18 -2 -34 -9z"/>
<path d="M1427 1794 c-19 -19 0 -25 76 -22 46 2 82 7 82 13 0 11 -147 20 -158
9z"/>
<path d="M1316 1753 c-61 -40 -72 -60 -28 -47 15 4 47 10 72 13 43 6 45 8 45
39 0 43 -17 42 -89 -5z"/>
<path d="M813 1763 c-22 -22 -32 -63 -15 -63 18 0 43 39 40 62 l-3 23 -22 -22z"/>
<path d="M1097 1709 l-76 -61 62 -64 c34 -36 71 -67 83 -70 31 -8 79 20 94 55
11 28 9 36 -35 113 -26 46 -49 84 -50 85 -1 2 -36 -24 -78 -58z m87 -25 c4
-13 11 -24 16 -24 6 0 10 -5 10 -12 0 -6 7 -19 16 -29 14 -16 13 -19 -13 -43
-15 -14 -35 -26 -43 -26 -20 0 -104 84 -99 99 7 17 82 69 95 64 7 -2 15 -15
18 -29z"/>
<path d="M1423 1728 c2 -9 28 -13 82 -13 54 0 80 4 83 13 3 9 -18 12 -83 12
-65 0 -86 -3 -82 -12z"/>
<path d="M680 1719 l-25 -10 24 -20 c27 -22 50 -24 76 -6 17 13 17 15 -6 30
-27 19 -34 20 -69 6z"/>
<path d="M850 1710 c-23 -23 -27 -60 -6 -60 18 0 46 38 46 62 0 24 -15 23 -40
-2z"/>
<path d="M1350 1651 c0 -23 -11 -43 -40 -75 l-40 -43 0 -86 0 -87 -25 12 c-19
9 -22 14 -13 25 6 7 8 16 4 20 -8 8 -44 -25 -51 -48 -10 -31 -20 -22 -40 37
-24 71 -39 80 -29 18 6 -41 5 -46 -10 -41 -46 19 -51 19 -28 -2 23 -20 23 -20
3 -31 -27 -14 -43 -44 -35 -65 7 -16 163 -155 175 -155 3 0 15 19 26 43 19 37
22 39 22 17 1 -26 74 -107 118 -129 32 -16 216 -14 256 3 18 7 49 31 69 53
l38 38 2 189 3 189 -43 46 c-23 25 -45 56 -48 69 -6 21 -9 22 -144 22 -76 0
-145 3 -154 6 -13 5 -16 -1 -16 -25z m280 -18 c0 -10 -32 -13 -125 -13 -110 0
-137 5 -121 21 2 2 59 4 125 4 90 0 121 -3 121 -12z m42 -60 c10 -9 18 -19 18
-22 0 -3 -79 -6 -175 -6 -96 0 -175 2 -175 4 0 3 7 13 17 23 14 16 33 18 156
18 117 0 144 -3 159 -17z m48 -229 l0 -171 -45 -42 -45 -41 -113 0 c-123 0
-137 5 -194 70 -22 24 -23 33 -23 190 l0 165 210 0 210 0 0 -171z m-456 -10
c12 -31 6 -61 -21 -102 -31 -48 -53 -53 -81 -17 -11 14 -26 25 -33 25 -7 0 -9
3 -6 7 4 3 2 12 -5 20 -8 11 -7 17 8 28 19 14 19 14 0 15 -11 0 -28 -7 -38
-17 -15 -13 -18 -14 -18 -2 0 28 22 38 64 33 31 -5 45 -2 55 10 17 21 67 21
75 0z"/>
<path d="M1337 1483 c-20 -19 9 -23 173 -23 153 0 180 2 180 15 0 13 -26 15
-173 15 -96 0 -177 -3 -180 -7z"/>
<path d="M1348 1333 c3 -103 10 -168 18 -160 3 2 7 51 10 108 3 57 10 109 15
114 6 6 64 12 130 13 l120 4 -6 -39 c-4 -21 -9 -47 -12 -58 -3 -16 -2 -17 6
-5 6 8 11 23 11 33 0 9 4 17 10 17 5 0 11 -43 12 -97 2 -66 7 -98 16 -101 9
-3 12 28 12 132 l0 136 -172 0 -173 0 3 -97z"/>
<path d="M1480 1156 c-14 -7 -42 -16 -63 -20 -72 -13 -25 -26 94 -26 73 0 119
4 119 10 0 6 -24 10 -52 10 -57 0 -85 11 -74 29 9 14 7 13 -24 -3z"/>
<path d="M738 1649 c-37 -21 -3 -48 35 -28 11 7 22 8 24 3 8 -22 45 -76 49
-71 3 3 -6 28 -20 56 -27 53 -49 63 -88 40z"/>
<path d="M587 1619 c-38 -22 -37 -49 8 -292 48 -266 57 -288 153 -385 31 -32
123 -101 203 -154 80 -53 156 -110 168 -127 12 -17 27 -54 33 -84 l11 -53 117
4 117 4 39 -35 39 -35 -3 182 c-2 125 -7 195 -18 227 -21 67 -81 122 -165 153
-91 34 -144 71 -248 173 -92 90 -119 101 -147 58 -21 -32 -12 -56 39 -101 97
-86 220 -210 248 -250 32 -47 35 -87 7 -92 -11 -2 -35 21 -72 71 -63 85 -80
98 -178 133 -91 32 -143 79 -163 147 -8 26 -31 132 -51 235 -27 137 -42 193
-57 210 -22 24 -51 28 -80 11z m65 -69 c6 -22 15 -66 50 -235 35 -173 59 -232
116 -282 14 -12 63 -36 109 -54 85 -32 111 -54 186 -152 34 -45 66 -55 101
-32 33 22 34 60 5 117 -12 23 -79 99 -150 168 -114 111 -145 150 -122 150 3 0
47 -39 97 -87 92 -89 137 -118 235 -155 59 -22 114 -73 135 -123 15 -34 28
-275 17 -293 -4 -6 -51 -10 -115 -9 -120 2 -110 -3 -145 79 -23 52 -88 112
-196 179 -145 90 -241 175 -281 252 -17 32 -52 185 -69 302 -1 11 -9 54 -16
96 -7 42 -9 84 -6 93 10 25 40 16 49 -14z"/>
<path d="M2052 1613 c-18 -9 -41 -28 -51 -42 -21 -29 -61 -134 -61 -157 0 -22
70 39 92 81 23 44 90 102 127 110 17 4 29 11 25 16 -9 15 -96 10 -132 -8z"/>
<path d="M2353 1608 c-15 -17 -30 -77 -61 -235 -23 -117 -50 -230 -61 -252
-26 -50 -63 -76 -151 -106 -92 -31 -119 -51 -171 -130 -43 -63 -68 -83 -89
-70 -19 12 -10 52 22 96 33 46 105 118 220 221 76 68 87 88 64 123 -28 42 -52
31 -165 -77 -105 -100 -122 -111 -269 -173 -24 -11 -59 -37 -78 -59 -53 -62
-64 -114 -64 -309 l0 -169 40 32 41 32 113 -3 114 -4 6 46 c10 76 39 106 208
219 87 58 169 116 184 130 40 38 110 141 123 181 16 50 81 415 81 456 0 64
-66 96 -107 51z m57 -23 c0 -8 6 -15 13 -15 9 0 8 -3 -2 -9 -8 -5 -9 -11 -3
-15 7 -4 7 -17 1 -39 -5 -17 -10 -51 -11 -74 -1 -24 -4 -43 -8 -43 -3 0 -7
-19 -9 -42 -1 -23 -4 -44 -6 -47 -2 -4 -6 -27 -10 -51 -15 -104 -46 -186 -87
-230 -12 -13 -22 -28 -20 -32 1 -5 -1 -7 -5 -6 -5 2 -27 -18 -50 -43 -26 -28
-81 -67 -140 -99 -54 -30 -103 -61 -109 -69 -7 -8 -16 -11 -24 -6 -9 5 -11 4
-6 -3 4 -6 -10 -28 -32 -50 -21 -21 -44 -53 -51 -72 -32 -85 -24 -80 -133 -80
-67 0 -98 4 -98 12 0 6 -7 4 -18 -5 -19 -18 -37 -23 -28 -9 3 5 6 64 7 133 1
137 14 185 62 239 27 29 50 42 175 95 23 10 54 29 67 41 14 13 25 22 25 20 0
-1 35 32 78 75 42 44 82 79 89 79 37 0 13 -33 -102 -143 -181 -173 -222 -240
-176 -286 24 -24 63 -27 83 -8 7 8 24 29 38 47 69 93 82 102 202 145 86 31
147 108 168 211 6 33 15 73 20 89 5 17 16 77 25 135 10 58 22 116 27 130 14
37 48 55 48 25z"/>
<path d="M877 1580 c-4 -14 -7 -38 -7 -54 0 -29 0 -29 -50 -23 -31 4 -48 2
-45 -3 4 -6 13 -10 22 -10 15 0 14 -2 0 -18 -25 -27 -21 -76 8 -111 31 -36 61
-47 81 -30 9 8 33 10 68 6 50 -5 54 -4 65 19 6 14 14 43 17 64 6 37 3 43 -29
74 -25 23 -33 37 -26 47 17 27 9 30 -18 9 -16 -12 -33 -31 -40 -43 -11 -21
-12 -21 -18 8 -3 17 -9 44 -14 60 l-7 30 -7 -25z m86 -97 c4 -3 -1 -12 -11
-19 -9 -7 -12 -14 -5 -14 6 0 18 7 27 15 23 24 38 -11 25 -58 -11 -42 -22 -52
-45 -39 -10 6 -32 5 -56 -1 -31 -8 -43 -7 -53 4 -20 20 -8 59 19 59 19 1 20 1
3 11 -22 13 -51 -6 -43 -28 3 -7 1 -13 -4 -13 -11 0 -13 30 -4 53 4 10 18 13
53 11 34 -3 52 0 61 11 13 16 23 19 33 8z"/>
<path d="M1891 1589 c-32 -13 -81 -49 -81 -59 0 -5 16 0 36 12 20 12 64 29 98
39 l61 18 -45 0 c-25 0 -56 -5 -69 -10z"/>
<path d="M1920 1554 c-25 -7 -62 -27 -82 -44 l-37 -31 -3 -174 c-2 -96 0 -175
4 -175 4 0 51 42 106 94 54 51 108 99 120 105 12 6 46 11 76 10 63 -2 96 15
126 64 11 18 20 35 20 38 0 13 -55 29 -102 29 -99 0 -189 -67 -240 -179 -16
-35 -31 -61 -34 -59 -8 8 64 279 81 305 9 14 15 26 13 28 -2 1 -23 -4 -48 -11z
m-35 -61 c-10 -14 -20 -48 -24 -76 -6 -47 -7 -48 -23 -31 -14 17 -15 24 -3 57
14 40 41 77 58 77 5 0 1 -12 -8 -27z m271 -50 c-3 -4 -36 -15 -72 -24 -70 -18
-75 -9 -9 15 42 15 93 21 81 9z m28 -28 c3 -10 -4 -20 -22 -28 -32 -16 -62
-11 -62 9 0 8 3 13 8 12 4 0 14 1 22 5 8 3 22 8 30 10 8 3 16 6 16 6 1 1 4 -6
8 -14z m-129 -44 c-6 -4 -28 -11 -50 -14 l-40 -5 30 13 c34 16 74 20 60 6z
m-200 -41 c8 -16 15 -37 15 -46 0 -15 -3 -15 -24 5 -16 15 -22 29 -18 46 6 32
8 31 27 -5z"/>
<path d="M2135 1551 c-16 -10 -39 -28 -50 -40 l-19 -22 29 8 c38 10 103 10
133 0 18 -7 22 -5 22 13 0 59 -54 79 -115 41z"/>
</g>
</svg>
